<svg width="86" height="20" viewBox="0 0 86 20" fill="none" xmlns="http://www.w3.org/2000/svg">
<path d="M3.92188 5.55859V12.2852H7.28516C7.74609 12.2852 8.17969 12.1992 8.58594 12.0273C8.99219 11.8477 9.34766 11.6055 9.65234 11.3008C9.95703 10.9961 10.1953 10.6406 10.3672 10.2344C10.5469 9.82031 10.6367 9.38281 10.6367 8.92188C10.6367 8.46094 10.5469 8.02734 10.3672 7.62109C10.1953 7.20703 9.95703 6.84766 9.65234 6.54297C9.34766 6.23828 8.99219 6 8.58594 5.82812C8.17969 5.64844 7.74609 5.55859 7.28516 5.55859H3.92188ZM3.92188 19H0.558594V2.19531H7.28516C7.90234 2.19531 8.49609 2.27734 9.06641 2.44141C9.63672 2.59766 10.168 2.82422 10.6602 3.12109C11.1602 3.41016 11.6133 3.76172 12.0195 4.17578C12.4336 4.58203 12.7852 5.03516 13.0742 5.53516C13.3711 6.03516 13.5977 6.57031 13.7539 7.14062C13.918 7.71094 14 8.30469 14 8.92188C14 9.5 13.9258 10.0625 13.7773 10.6094C13.6367 11.1562 13.4297 11.6758 13.1562 12.168C12.8906 12.6602 12.5625 13.1133 12.1719 13.5273C11.7812 13.9414 11.3438 14.3008 10.8594 14.6055L12.7227 19H9.14844L7.68359 15.6133L3.92188 15.6367V19ZM25.0977 17.5352C24.8398 17.7695 24.5625 17.9922 24.2656 18.2031C23.9766 18.4062 23.6719 18.5859 23.3516 18.7422C23.0312 18.8906 22.6992 19.0078 22.3555 19.0938C22.0195 19.1875 21.6758 19.2344 21.3242 19.2344C20.5508 19.2344 19.8242 19.0977 19.1445 18.8242C18.4648 18.5508 17.8672 18.1641 17.3516 17.6641C16.8438 17.1562 16.4414 16.543 16.1445 15.8242C15.8555 15.0977 15.7109 14.2852 15.7109 13.3867V6.44922H18.8984V13.3867C18.8984 13.8086 18.9609 14.1875 19.0859 14.5234C19.2188 14.8516 19.3945 15.1289 19.6133 15.3555C19.832 15.582 20.0859 15.7539 20.375 15.8711C20.6719 15.9883 20.9883 16.0469 21.3242 16.0469C21.6523 16.0469 21.9609 15.9727 22.25 15.8242C22.5469 15.668 22.8047 15.4648 23.0234 15.2148C23.2422 14.9648 23.4141 14.6836 23.5391 14.3711C23.6641 14.0508 23.7266 13.7227 23.7266 13.3867V6.44922H26.9258V19H26.1523L25.0977 17.5352ZM41.9375 12.6133C41.9375 13.5977 41.7695 14.4961 41.4336 15.3086C41.0977 16.1211 40.6406 16.8203 40.0625 17.4062C39.4844 17.9844 38.8047 18.4336 38.0234 18.7539C37.25 19.0742 36.418 19.2344 35.5273 19.2344C34.6445 19.2344 33.8125 19.0703 33.0312 18.7422C32.2578 18.4141 31.5781 17.957 30.9922 17.3711C30.4141 16.7852 29.957 16.0898 29.6211 15.2852C29.2852 14.4727 29.1172 13.582 29.1172 12.6133V1.45703H32.3281V7.31641C32.5 7.09766 32.707 6.90234 32.9492 6.73047C33.1992 6.55859 33.4648 6.41797 33.7461 6.30859C34.0352 6.19922 34.332 6.11719 34.6367 6.0625C34.9414 6 35.2383 5.96875 35.5273 5.96875C36.418 5.96875 37.25 6.13672 38.0234 6.47266C38.8047 6.80078 39.4844 7.26172 40.0625 7.85547C40.6406 8.44922 41.0977 9.15234 41.4336 9.96484C41.7695 10.7695 41.9375 11.6523 41.9375 12.6133ZM38.7148 12.6133C38.7148 12.1289 38.6289 11.6797 38.457 11.2656C38.293 10.8438 38.0664 10.4805 37.7773 10.1758C37.4883 9.87109 37.1484 9.63281 36.7578 9.46094C36.375 9.28906 35.9648 9.20312 35.5273 9.20312C35.0898 9.20312 34.6758 9.30078 34.2852 9.49609C33.9023 9.68359 33.5664 9.9375 33.2773 10.2578C32.9883 10.5703 32.7617 10.9336 32.5977 11.3477C32.4336 11.7539 32.3516 12.1758 32.3516 12.6133C32.3516 13.0977 32.4336 13.5469 32.5977 13.9609C32.7617 14.375 32.9883 14.7344 33.2773 15.0391C33.5664 15.3438 33.9023 15.5859 34.2852 15.7656C34.6758 15.9375 35.0898 16.0234 35.5273 16.0234C35.9648 16.0234 36.375 15.9375 36.7578 15.7656C37.1484 15.5859 37.4883 15.3438 37.7773 15.0391C38.0664 14.7344 38.293 14.375 38.457 13.9609C38.6289 13.5469 38.7148 13.0977 38.7148 12.6133ZM47.4922 3.03906C47.4922 3.33594 47.4336 3.61328 47.3164 3.87109C47.207 4.12891 47.0547 4.35547 46.8594 4.55078C46.6641 4.73828 46.4336 4.89062 46.168 5.00781C45.9102 5.11719 45.6328 5.17188 45.3359 5.17188C45.0391 5.17188 44.7578 5.11719 44.4922 5.00781C44.2344 4.89062 44.0078 4.73828 43.8125 4.55078C43.625 4.35547 43.4727 4.12891 43.3555 3.87109C43.2461 3.61328 43.1914 3.33594 43.1914 3.03906C43.1914 2.75 43.2461 2.47656 43.3555 2.21875C43.4727 1.95312 43.625 1.72656 43.8125 1.53906C44.0078 1.34375 44.2344 1.19141 44.4922 1.08203C44.7578 0.964844 45.0391 0.90625 45.3359 0.90625C45.6328 0.90625 45.9102 0.964844 46.168 1.08203C46.4336 1.19141 46.6641 1.34375 46.8594 1.53906C47.0547 1.72656 47.207 1.95312 47.3164 2.21875C47.4336 2.47656 47.4922 2.75 47.4922 3.03906ZM46.9414 19H43.7188V6.44922H46.9414V19ZM58.6133 17.5352C58.3555 17.7695 58.0781 17.9922 57.7812 18.2031C57.4922 18.4062 57.1875 18.5859 56.8672 18.7422C56.5469 18.8906 56.2148 19.0078 55.8711 19.0938C55.5352 19.1875 55.1914 19.2344 54.8398 19.2344C54.0664 19.2344 53.3398 19.0977 52.6602 18.8242C51.9805 18.5508 51.3828 18.1641 50.8672 17.6641C50.3594 17.1562 49.957 16.543 49.6602 15.8242C49.3711 15.0977 49.2266 14.2852 49.2266 13.3867V6.44922H52.4141V13.3867C52.4141 13.8086 52.4766 14.1875 52.6016 14.5234C52.7344 14.8516 52.9102 15.1289 53.1289 15.3555C53.3477 15.582 53.6016 15.7539 53.8906 15.8711C54.1875 15.9883 54.5039 16.0469 54.8398 16.0469C55.168 16.0469 55.4766 15.9727 55.7656 15.8242C56.0625 15.668 56.3203 15.4648 56.5391 15.2148C56.7578 14.9648 56.9297 14.6836 57.0547 14.3711C57.1797 14.0508 57.2422 13.7227 57.2422 13.3867V6.44922H60.4414V19H59.668L58.6133 17.5352ZM78.8516 19H75.6641V11.0312C75.6641 10.8125 75.6211 10.6055 75.5352 10.4102C75.457 10.2148 75.3438 10.043 75.1953 9.89453C75.0469 9.74609 74.875 9.63281 74.6797 9.55469C74.4844 9.46875 74.2773 9.42578 74.0586 9.42578C73.8398 9.42578 73.6328 9.46875 73.4375 9.55469C73.25 9.63281 73.082 9.74609 72.9336 9.89453C72.793 10.043 72.6797 10.2148 72.5938 10.4102C72.5156 10.6055 72.4766 10.8125 72.4766 11.0312V19H69.2773V11.0312C69.2773 10.8125 69.2344 10.6055 69.1484 10.4102C69.0703 10.2148 68.957 10.043 68.8086 9.89453C68.6602 9.74609 68.4883 9.63281 68.293 9.55469C68.0977 9.46875 67.8906 9.42578 67.6719 9.42578C67.4531 9.42578 67.2461 9.46875 67.0508 9.55469C66.8633 9.63281 66.6953 9.74609 66.5469 9.89453C66.4062 10.043 66.293 10.2148 66.207 10.4102C66.1289 10.6055 66.0898 10.8125 66.0898 11.0312V19H62.8906V6.44922H63.6641L64.5312 7.41016C64.9766 7.03516 65.4648 6.74609 65.9961 6.54297C66.5352 6.33203 67.0938 6.22656 67.6719 6.22656C68.2578 6.22656 68.8281 6.33594 69.3828 6.55469C69.9453 6.77344 70.4375 7.15234 70.8594 7.69141C71.0547 7.42578 71.2773 7.19922 71.5273 7.01172C71.7773 6.82422 72.0391 6.67188 72.3125 6.55469C72.5938 6.4375 72.8828 6.35547 73.1797 6.30859C73.4766 6.25391 73.7695 6.22656 74.0586 6.22656C74.7227 6.22656 75.3438 6.35156 75.9219 6.60156C76.5078 6.85156 77.0156 7.19531 77.4453 7.63281C77.8828 8.0625 78.2266 8.57031 78.4766 9.15625C78.7266 9.74219 78.8516 10.3672 78.8516 11.0312V19ZM85.1328 17.8047C85.1328 18.0859 85.082 18.3516 84.9805 18.6016C84.8789 18.8438 84.7383 19.0547 84.5586 19.2344C84.3789 19.4141 84.168 19.5547 83.9258 19.6562C83.6836 19.7656 83.4219 19.8203 83.1406 19.8203C82.8672 19.8203 82.6055 19.7656 82.3555 19.6562C82.1133 19.5547 81.8984 19.4141 81.7109 19.2344C81.5312 19.0547 81.3867 18.8438 81.2773 18.6016C81.1758 18.3516 81.125 18.0859 81.125 17.8047C81.125 17.5312 81.1758 17.2734 81.2773 17.0312C81.3867 16.7891 81.5312 16.5781 81.7109 16.3984C81.8984 16.2188 82.1133 16.0781 82.3555 15.9766C82.6055 15.8672 82.8672 15.8125 83.1406 15.8125C83.4219 15.8125 83.6836 15.8672 83.9258 15.9766C84.168 16.0781 84.3789 16.2188 84.5586 16.3984C84.7383 16.5781 84.8789 16.7891 84.9805 17.0312C85.082 17.2734 85.1328 17.5312 85.1328 17.8047Z" fill="white"/>
</svg>
